<?xml version="1.0" encoding="utf-8"?>
<!-- Generator: Adobe Illustrator 26.1.0, SVG Export Plug-In . SVG Version: 6.00 Build 0)  -->
<svg version="1.1" id="Layer_1" xmlns="http://www.w3.org/2000/svg" xmlns:xlink="http://www.w3.org/1999/xlink" x="0px" y="0px"
	 viewBox="0 0 61.31 61.31" style="enable-background:new 0 0 61.31 61.31;" xml:space="preserve">
<style type="text/css">
	.st0{fill:#CCDB30;}
</style>
<path class="st0" d="M17.38,4.13c8.88,8.88,17.72,17.72,26.55,26.55c-8.82,8.82-17.66,17.66-26.51,26.51c0-0.08-0.02-0.16-0.02-0.25
	c-0.01-3.41-0.02-6.82-0.03-10.23c0-2.71,0-5.41-0.01-8.12c0-0.21,0.06-0.36,0.21-0.5c2.38-2.37,4.76-4.75,7.14-7.13
	c0.08-0.08,0.17-0.16,0.28-0.26c-0.1-0.1-0.17-0.18-0.25-0.26c-2.39-2.39-4.78-4.78-7.18-7.16c-0.14-0.14-0.2-0.28-0.2-0.48
	c0.01-6.12,0-12.23,0-18.35C17.38,4.35,17.38,4.25,17.38,4.13z"/>
</svg>
